<svg xmlns="http://www.w3.org/2000/svg" width="69.719" height="65.84"><path d="M29.338 1.45a1.3 1.3 0 0 1 2.574-.36l2.058 14.42a1.287 1.287 0 0 1-1.1 1.45 1.176 1.176 0 0 1-.184.02 1.3 1.3 0 0 1-1.285-1.11zm34.265 4.93l-1.018 1.01a1.279 1.279 0 0 0 0 1.82 1.315 1.315 0 0 0 1.839 0l1.017-1.01 1.018 1.01a1.3 1.3 0 0 0 1.838 0 1.277 1.277 0 0 0 0-1.82L67.28 6.38l1.018-1.01a1.279 1.279 0 0 0 0-1.82 1.315 1.315 0 0 0-1.839 0l-1.018 1.01-1.018-1.01a1.314 1.314 0 0 0-1.838 0 1.277 1.277 0 0 0 0 1.82zM25.886 23.11a1.321 1.321 0 0 0 1.822.24 1.286 1.286 0 0 0 .242-1.81L16.475 6.7a1.3 1.3 0 0 0-1.823-.23 1.275 1.275 0 0 0-.241 1.8zM4.551 11.08l.43.33a1.3 1.3 0 0 0 1.823-.24 1.273 1.273 0 0 0-.239-1.8l-.43-.33a1.307 1.307 0 0 0-1.823.24 1.274 1.274 0 0 0 .239 1.8zm-1.1 15.96a1.286 1.286 0 1 0-.341 2.55l13.293 1.75a1 1 0 0 0 .172.01 1.29 1.29 0 0 0 .169-2.57zm5.335-12.73l12.635 9.62a1.322 1.322 0 0 0 1.823-.24 1.273 1.273 0 0 0-.238-1.8L10.37 12.27a1.3 1.3 0 0 0-1.822.23 1.284 1.284 0 0 0 .24 1.81zm27.956 2.79c.059 0 .118.01.176.01a1.3 1.3 0 0 0 1.287-1.12l1.991-14.54a1.3 1.3 0 0 0-2.576-.34l-1.991 14.54a1.3 1.3 0 0 0 1.115 1.45zm29.632 18.19l-17.828-2.33a1.286 1.286 0 1 0-.341 2.55l17.828 2.34c.058 0 .115.01.172.01a1.29 1.29 0 0 0 .171-2.57zm1.124-7.09a1.3 1.3 0 0 0-1.457-1.11l-13.376 1.73a1.29 1.29 0 0 0 .167 2.57 1 1 0 0 0 .17-.02l13.376-1.73A1.287 1.287 0 0 0 67.5 28.2zm-8.354-15.9l-12.585 9.55a1.285 1.285 0 0 0-.241 1.81 1.321 1.321 0 0 0 1.822.24l12.585-9.55a1.287 1.287 0 0 0 .241-1.81 1.314 1.314 0 0 0-1.822-.24zm-3.477-6.85a1.306 1.306 0 0 0 1.823-.23l.115-.15a1.274 1.274 0 0 0-.238-1.8 1.3 1.3 0 0 0-1.823.23l-.115.15a1.273 1.273 0 0 0 .24 1.8zm2.314-2.98a1.3 1.3 0 0 0 .791.27 1.328 1.328 0 0 0 1.031-.5l.122-.16a1.286 1.286 0 0 0-.238-1.81 1.314 1.314 0 0 0-1.822.24l-.122.15a1.283 1.283 0 0 0 .24 1.81zm-16.123 20.8a1.3 1.3 0 0 0 .791.27 1.328 1.328 0 0 0 1.031-.5L55.111 8.3a1.273 1.273 0 0 0-.238-1.8 1.3 1.3 0 0 0-1.823.23L41.619 21.47a1.273 1.273 0 0 0 .241 1.8zM2.567 7.95a1.284 1.284 0 0 0-.239-1.81l-.226-.17a1.306 1.306 0 0 0-1.823.24 1.274 1.274 0 0 0 .239 1.8l.226.17a1.306 1.306 0 0 0 1.825-.23zm40.467 34.52a1.285 1.285 0 0 1-.515 1.36 1.31 1.31 0 0 1-1.468.02l-6.089-4.03-6.563 4.05a1.34 1.34 0 0 1-1.467-.06 1.286 1.286 0 0 1-.471-1.38l1.98-6.98-5.911-4.94a1.277 1.277 0 0 1-.392-1.4 1.3 1.3 0 0 1 1.177-.87l7.313-.29 2.91-7.09a1.321 1.321 0 0 1 1.225-.81 1.307 1.307 0 0 1 1.2.85l2.539 6.8 7.71.54a1.3 1.3 0 0 1 1.149.91 1.281 1.281 0 0 1-.437 1.39l-5.743 4.49zm-4.123-8.94l3.771-2.95-5.2-.38a1.287 1.287 0 0 1-1.126-.83l-1.668-4.47-1.964 4.79a1.294 1.294 0 0 1-1.152.8l-4.8.19 3.99 3.33a1.292 1.292 0 0 1 .414 1.34l-1.3 4.58 4.43-2.73a1.3 1.3 0 0 1 1.408.02l4 2.64-1.252-5.01a1.28 1.28 0 0 1 .451-1.32zm21.5 30a1.3 1.3 0 0 0-1.822-.24 1.274 1.274 0 0 0-.241 1.8l.188.25a1.306 1.306 0 0 0 1.823.23 1.274 1.274 0 0 0 .24-1.8zM3.466 23.36l1.018-1.01 1.017 1.01a1.328 1.328 0 0 0 1.839 0 1.279 1.279 0 0 0 0-1.82l-1.018-1.01 1.018-1.01a1.279 1.279 0 0 0 0-1.82 1.315 1.315 0 0 0-1.839 0l-1.017 1.01-1.018-1.01a1.315 1.315 0 0 0-1.839 0 1.279 1.279 0 0 0 0 1.82l1.018 1.01-1.017 1.01a1.277 1.277 0 0 0 0 1.82 1.314 1.314 0 0 0 1.845 0zm54.445 36.93l-.188-.24a1.305 1.305 0 0 0-1.822-.24 1.284 1.284 0 0 0-.241 1.81l.188.24a1.3 1.3 0 0 0 1.032.5 1.358 1.358 0 0 0 .79-.26 1.285 1.285 0 0 0 .248-1.81zm10.4-14.9l1.018-1a1.277 1.277 0 0 0 0-1.82 1.3 1.3 0 0 0-1.838 0l-1.018 1-1.018-1.01a1.314 1.314 0 0 0-1.838 0 1.289 1.289 0 0 0 0 1.83l1.018 1-1.018 1.01a1.277 1.277 0 0 0 0 1.82 1.3 1.3 0 0 0 1.838 0l1.018-1.01 1.018 1.01a1.293 1.293 0 1 0 1.838-1.82zm-7.619 5.19L48.58 41.36a1.307 1.307 0 0 0-1.823.24 1.274 1.274 0 0 0 .238 1.8l12.113 9.22a1.306 1.306 0 0 0 1.823-.23 1.283 1.283 0 0 0-.232-1.81zm-12.085-2.32a1.314 1.314 0 0 0-1.822-.24 1.285 1.285 0 0 0-.242 1.81l6.463 8.35a1.3 1.3 0 0 0 1.822.24 1.274 1.274 0 0 0 .242-1.8zm-25.843-6.73a1.314 1.314 0 0 0-1.822-.24L8.754 50.54a1.284 1.284 0 0 0-.241 1.81 1.321 1.321 0 0 0 1.822.24l12.188-9.25a1.285 1.285 0 0 0 .248-1.81zM9.552 58.59a1.3 1.3 0 0 0-1.839 0L6.695 59.6l-1.017-1.01a1.3 1.3 0 0 0-1.839 0 1.277 1.277 0 0 0 0 1.82l1.018 1.01-1.013 1.01a1.277 1.277 0 0 0 0 1.82 1.314 1.314 0 0 0 1.838 0L6.7 63.24l1.018 1.01a1.3 1.3 0 1 0 1.838-1.83l-1.017-1 1.017-1.01a1.278 1.278 0 0 0 .003-1.82zm12.716-24.53a1.3 1.3 0 0 0-1.457-1.11L3.1 35.25a1.285 1.285 0 0 0 .167 2.56.982.982 0 0 0 .171-.01l17.71-2.3a1.282 1.282 0 0 0 1.127-1.44zM38.2 49.16a1.3 1.3 0 0 0-1.463-1.1 1.285 1.285 0 0 0-1.113 1.45l1.991 14.54a1.3 1.3 0 0 0 1.286 1.11 1.045 1.045 0 0 0 .176-.01 1.285 1.285 0 0 0 1.114-1.45zm-5.341-.97a1.3 1.3 0 0 0-1.47 1.1L29.331 63.7a1.292 1.292 0 0 0 1.105 1.46 1.142 1.142 0 0 0 .184.01 1.292 1.292 0 0 0 1.285-1.11l2.058-14.41a1.291 1.291 0 0 0-1.097-1.46zM22.665 48a1.314 1.314 0 0 0-1.822.24l-6.475 8.35a1.273 1.273 0 0 0 .238 1.8 1.306 1.306 0 0 0 1.823-.23l6.475-8.35a1.286 1.286 0 0 0-.232-1.81z" fill="#ff6b00" fill-rule="evenodd"/></svg>