<svg xmlns="http://www.w3.org/2000/svg" width="58.59" height="62.66"><path d="M13.41 15.41a1.225 1.225 0 1 0 1.22 1.23 1.227 1.227 0 0 0-1.22-1.23zm10.97 22.88h-3.65v-3.67a1.22 1.22 0 0 0-2.44 0v3.67h-3.66a1.225 1.225 0 0 0 0 2.45h3.66v3.67a1.22 1.22 0 0 0 2.44 0v-3.67h3.65a1.225 1.225 0 0 0 0-2.45zm32.91 1.1a9.723 9.723 0 0 0-13.32-3.58l-4.95 2.87V28.06a6.248 6.248 0 0 0-1.22-3.68l-6.1-8.15v-3.47a3.685 3.685 0 0 0 2.44-3.46V3.67A3.67 3.67 0 0 0 30.48 0H8.53a3.668 3.668 0 0 0-3.65 3.67V9.3a3.685 3.685 0 0 0 2.44 3.46v3.47l-6.1 8.15A6.18 6.18 0 0 0 0 28.06v23.69a6.107 6.107 0 0 0 6.1 6.11h19.59a9.721 9.721 0 0 0 13.25 3.46l14.78-8.56a9.81 9.81 0 0 0 3.57-13.37zM7.32 3.67a1.216 1.216 0 0 1 1.21-1.22h21.95a1.225 1.225 0 0 1 1.22 1.22V9.3a1.225 1.225 0 0 1-1.22 1.22H8.53A1.216 1.216 0 0 1 7.32 9.3V3.67zM3.17 25.85l6.34-8.48a1.206 1.206 0 0 0 .24-.73v-3.67h19.51v2.44H18.29a1.225 1.225 0 0 0 0 2.45h11.58l5.97 7.99a3.585 3.585 0 0 1 .71 1.8H2.46a3.777 3.777 0 0 1 .71-1.8zM6.1 55.42a3.67 3.67 0 0 1-3.66-3.67v-1.24h22.15a9.845 9.845 0 0 0 .06 4.91H6.1zm19.45-7.34H2.44V30.09h34.14v10l-7.39 4.28a9.677 9.677 0 0 0-3.64 3.71zM37.72 59.2a7.334 7.334 0 0 1-7.32-12.71l6.62-3.83 7.32 12.71zm14.78-8.56l-6.05 3.51-7.32-12.72 6.06-3.5a7.331 7.331 0 0 1 7.31 12.71z" fill="#ff6b00" fill-rule="evenodd"/></svg>