<svg xmlns="http://www.w3.org/2000/svg" width="38.44" height="38.438"><path data-name="Forma 1 copy.svg" d="M17.73 25.027a11.162 11.162 0 0 0 2.77-1.363 11.521 11.521 0 1 0-12 .5h.01a11.246 11.246 0 0 0 2.87 1.122h.01a11.159 11.159 0 0 0 2.7.329 11.372 11.372 0 0 0 3.64-.588zm-6.04-.982a9.852 9.852 0 0 1-2.56-1 10.246 10.246 0 1 1 10.66-.447 10 10 0 0 1-2.46 1.211h-.01a10.248 10.248 0 0 1-5.63.235zm15.98-13.7A14.086 14.086 0 1 0 6.5 25.953a8.957 8.957 0 0 0 15.98 8.02 12.158 12.158 0 1 0 5.19-23.636zM1.28 14.09a12.81 12.81 0 0 1 25.26-3.014 11.792 11.792 0 0 1 .36 3.014 12.794 12.794 0 0 1-5.45 10.483 12.529 12.529 0 0 1-2.12 1.21 12.669 12.669 0 0 1-2.64.853c-.29.06-.59.109-.89.148h-.03a11.922 11.922 0 0 1-1.68.113A12.813 12.813 0 0 1 1.28 14.086zm13.45 23.058a7.656 7.656 0 0 1-7.68-7.638 7.515 7.515 0 0 1 .57-2.922 13.511 13.511 0 0 0 6.47 1.6 13.987 13.987 0 0 0 1.43-.081 12.226 12.226 0 0 0 4.02 4.455c.25.165.5.317.76.462l.2.112c.23.12.45.236.68.343.03.012.06.03.09.042a7.648 7.648 0 0 1-6.54 3.624zm11.53-3.843a10.676 10.676 0 0 1-3.86-.709 10.4 10.4 0 0 1-2.15-1.105 11.081 11.081 0 0 1-.9-.676c-.05-.042-.1-.08-.15-.121-.27-.233-.53-.48-.78-.737-.05-.052-.09-.1-.14-.155a10.187 10.187 0 0 1-.71-.837l-.06-.084c-.21-.288-.41-.584-.59-.891-.02-.028-.03-.056-.05-.083l.05-.011c.06-.011.12-.028.18-.041.24-.052.47-.11.71-.173l.29-.084c.21-.06.42-.131.62-.2.09-.032.18-.061.27-.094.29-.109.58-.221.86-.348a13.934 13.934 0 0 0 2.34-1.335 14.062 14.062 0 0 0 5.78-13.942 10.883 10.883 0 0 1-1.71 21.622zm-11.53 1.282a5.131 5.131 0 0 1-5.12-5.125H8.33a6.409 6.409 0 0 0 6.4 6.406 6.315 6.315 0 0 0 2.85-.669l-.57-1.147a5.079 5.079 0 0 1-2.28.531zm10.89-5.125h1.28v2.564h-1.28v-2.568zm-3.61 1.6l-1.11-.642 1.28-2.219 1.11.642zm8.5 0l-1.28-2.22 1.11-.64 1.28 2.22zm3.75-3.283l-2.21-1.28.64-1.109 2.21 1.281zm-.95-6h2.56v1.282h-2.56v-1.289zm.95-4.716l.64 1.108-2.22 1.282-.64-1.116zm-3.92-.424l-1.11-.64 1.28-2.22 1.11.64zm-13.04 3.86a.642.642 0 0 0-.64-.641h-1.93V7.683a.638.638 0 0 0-1.09-.454l-2.88 2.882a.639.639 0 0 0 .9.907l1.79-1.789v10.623h-1.92a.64.64 0 1 0 0 1.279h5.13a.642.642 0 0 0 .64-.638z" fill="#a3acb5" fill-rule="evenodd"/></svg>