<svg xmlns="http://www.w3.org/2000/svg" width="26" height="41"><path data-name="Forma 1 copy 2.svg" d="M22 25.515l-8.8-3.014a.607.607 0 0 0-.4 0l-6.33 2.166a.6.6 0 0 0-.38.764.616.616 0 0 0 .78.37l6.13-2.1 8.16 2.8a17.243 17.243 0 0 1-1.12 4.594A17.777 17.777 0 0 1 13 39.69a17.777 17.777 0 0 1-7.04-8.595 16.416 16.416 0 0 1-1.15-5.026.608.608 0 0 0-.61-.585h-.02a.6.6 0 0 0-.59.612 17.267 17.267 0 0 0 1.21 5.382 19.011 19.011 0 0 0 7.88 9.432.606.606 0 0 0 .64 0 19.01 19.01 0 0 0 7.88-9.433 17.263 17.263 0 0 0 1.21-5.382.6.6 0 0 0-.41-.58zm-5.03 3.391a.615.615 0 0 0-.86 0l-3.78 3.72-2.25-2.212a.613.613 0 0 0-.86 0 .591.591 0 0 0 0 .85l2.68 2.638a.612.612 0 0 0 .86 0l4.21-4.145a.592.592 0 0 0 0-.851zm6.89-8.546l-4.94-2.432a1.32 1.32 0 0 1-.75-1.184v-2.33a6.969 6.969 0 0 0 1.96-4.826V5.737C20.13 2.572 16.93 0 13 0S5.87 2.572 5.87 5.737v3.851a6.97 6.97 0 0 0 1.96 4.826v2.329a1.32 1.32 0 0 1-.75 1.184l-4.94 2.432A3.784 3.784 0 0 0 0 23.767v3.794a1.9 1.9 0 0 0 1.91 1.884.6.6 0 1 0 0-1.2.688.688 0 0 1-.69-.684v-3.793a2.585 2.585 0 0 1 1.47-2.334L7.63 19a2.516 2.516 0 0 0 1.42-2.257v-1.314c.12.084.25.162.38.236a.62.62 0 0 0 .84-.219.607.607 0 0 0-.23-.82 5.825 5.825 0 0 1-2.95-5.04v-3.85c0-2.5 2.65-4.535 5.91-4.535s5.91 2.034 5.91 4.535v3.851a5.829 5.829 0 0 1-2.95 5.04.589.589 0 0 0-.23.82.62.62 0 0 0 .84.219c.13-.075.26-.154.38-.238v1.314A2.516 2.516 0 0 0 18.37 19l4.94 2.433a2.585 2.585 0 0 1 1.47 2.334v3.794a.688.688 0 0 1-.69.684.6.6 0 1 0 0 1.2A1.9 1.9 0 0 0 26 27.561v-3.793a3.784 3.784 0 0 0-2.14-3.408z" fill="#a3acb5" fill-rule="evenodd"/></svg>