<svg xmlns="http://www.w3.org/2000/svg" width="47.88" height="74.87"><path d="M27.95 64.19H11.73a4.3 4.3 0 0 1-3.79-6.42 1.07 1.07 0 0 0-.11-1.24 1.1 1.1 0 0 0-1.2-.34 9.572 9.572 0 0 0 3.06 18.68h1.96a1.1 1.1 0 1 0 0-2.19H9.69a7.387 7.387 0 0 1-4.51-13.3c-.01.17-.02.33-.02.5a6.547 6.547 0 0 0 6.57 6.5h16.22a6.035 6.035 0 0 1 6.06 5.99v.31H16.17a1.1 1.1 0 1 0 0 2.19h18.95a1.105 1.105 0 0 0 1.11-1.1v-1.4a8.237 8.237 0 0 0-8.28-8.18zm5.15-35.83a1.11 1.11 0 0 0-2.18.42 6.928 6.928 0 0 1-.31 3.77 7.236 7.236 0 0 1-9.25 4.27 7.16 7.16 0 0 1-4.08-3.69 7.043 7.043 0 0 1-.24-5.46 7.119 7.119 0 0 1 3.74-4.03 7.236 7.236 0 0 1 5.52-.24 7.088 7.088 0 0 1 2.84 1.87 1.118 1.118 0 0 0 1.57.07 1.094 1.094 0 0 0 .07-1.55 9.594 9.594 0 0 0-3.72-2.45 9.463 9.463 0 0 0-7.22.31 9.344 9.344 0 0 0 3.98 17.8 9.458 9.458 0 0 0 8.88-6.15 9.24 9.24 0 0 0 .4-4.94zm-4.25.66l-1.49-.54.54-1.47a1.087 1.087 0 0 0-.66-1.4l-3.09-1.12a1.135 1.135 0 0 0-.85.04 1.086 1.086 0 0 0-.57.62l-.55 1.47-1.49-.53a1.107 1.107 0 0 0-1.42.65l-1.12 3.06a1.069 1.069 0 0 0 .04.84 1.1 1.1 0 0 0 .62.56l1.49.54-.54 1.47a1.067 1.067 0 0 0 .04.84 1.088 1.088 0 0 0 .62.57l3.09 1.11a1.272 1.272 0 0 0 .38.07 1.106 1.106 0 0 0 1.04-.73l.54-1.47 1.49.54a1.137 1.137 0 0 0 .85-.04 1.057 1.057 0 0 0 .57-.62l1.13-3.05a1.1 1.1 0 0 0-.66-1.41zm-2.17 2.68l-1.49-.53a1.1 1.1 0 0 0-1.42.65l-.54 1.47-1.01-.36.54-1.47a1.093 1.093 0 0 0-.66-1.41l-1.49-.53.37-1 1.49.54a1.112 1.112 0 0 0 .84-.04 1.073 1.073 0 0 0 .58-.62l.54-1.47 1.01.36-.55 1.48a1.092 1.092 0 0 0 .67 1.4l1.49.54zm20.45-21.46L23.6 1.77h-.01L18.89.08a1.1 1.1 0 0 0-1.42.65l-2.19 5.95c0 .01-.01.02-.01.03a.309.309 0 0 0-.02.08l-.01.01-1.65 6.89a1.084 1.084 0 0 0 .82 1.32 1.11 1.11 0 0 0 1.33-.82l1.37-5.69 20.32 7.32 5.58 2.01-14.93 29.49a3.833 3.833 0 0 1-4.71 1.86l-1.73-.63-8.12-2.92-1.73-.62a3.766 3.766 0 0 1-2.4-4.42l5.3-22.04a1.084 1.084 0 0 0-.82-1.32 1.1 1.1 0 0 0-1.33.81L7.23 40.08a5.961 5.961 0 0 0 3.8 6.99l.69.25-2.46 6.7a1.069 1.069 0 0 0 .04.84 1.1 1.1 0 0 0 .62.56l8.11 2.92a1.058 1.058 0 0 0 .38.07 1.124 1.124 0 0 0 1.05-.72l2.46-6.7.69.25a6.209 6.209 0 0 0 2.06.36 6.026 6.026 0 0 0 5.39-3.3l15.49-30.59a.01.01 0 0 0 .01-.01.488.488 0 0 0 .03-.07c0-.01.01-.02.01-.03l2.19-5.95a1.1 1.1 0 0 0-.66-1.41zM17.75 55.91l-6.03-2.17 2.09-5.67 6.03 2.17zm26.15-40.1l-13.08-4.7L17.74 6.4l1.43-3.89 2.63.95-.72 1.94a1.087 1.087 0 0 0 .66 1.4 1.058 1.058 0 0 0 .38.07 1.1 1.1 0 0 0 1.04-.72l.72-1.94 2.62.94-.71 1.94a1.1 1.1 0 0 0 .66 1.41 1.272 1.272 0 0 0 .38.07 1.106 1.106 0 0 0 1.04-.73l.72-1.94 2.62.95-.72 1.94a1.084 1.084 0 0 0 .67 1.4.986.986 0 0 0 .38.07 1.121 1.121 0 0 0 1.04-.72l.71-1.94 2.63.94-.72 1.94a1.1 1.1 0 0 0 .66 1.41 1.332 1.332 0 0 0 .38.07 1.1 1.1 0 0 0 1.04-.73L38 9.29l2.62.95-.71 1.94a1.079 1.079 0 0 0 .66 1.4.986.986 0 0 0 .38.07 1.111 1.111 0 0 0 1.04-.72l.72-1.94 2.62.94z" fill="#ff6b00" fill-rule="evenodd"/></svg>